<?xml version="1.0" encoding="UTF-8" standalone="no"?>
<svg
   xmlns:dc="http://purl.org/dc/elements/1.1/"
   xmlns:cc="http://creativecommons.org/ns#"
   xmlns:rdf="http://www.w3.org/1999/02/22-rdf-syntax-ns#"
   xmlns:svg="http://www.w3.org/2000/svg"
   xmlns="http://www.w3.org/2000/svg"
   xmlns:sodipodi="http://sodipodi.sourceforge.net/DTD/sodipodi-0.dtd"
   xmlns:inkscape="http://www.inkscape.org/namespaces/inkscape"
   inkscape:version="1.0 (4035a4f, 2020-05-01)"
   sodipodi:docname="no-photo.svg"
   id="svg856"
   version="1.1"
   height="48"
   width="48">
  <metadata
     id="metadata862">
    <rdf:RDF>
      <cc:Work
         rdf:about="">
        <dc:format>image/svg+xml</dc:format>
        <dc:type
           rdf:resource="http://purl.org/dc/dcmitype/StillImage" />
      </cc:Work>
    </rdf:RDF>
  </metadata>
  <defs
     id="defs860" />
  <sodipodi:namedview
     inkscape:current-layer="g854"
     inkscape:window-maximized="1"
     inkscape:window-y="23"
     inkscape:window-x="0"
     inkscape:cy="26.818182"
     inkscape:cx="31.813718"
     inkscape:zoom="11"
     showgrid="false"
     id="namedview858"
     inkscape:window-height="827"
     inkscape:window-width="1440"
     inkscape:pageshadow="2"
     inkscape:pageopacity="0"
     guidetolerance="10"
     gridtolerance="10"
     objecttolerance="10"
     borderopacity="1"
     bordercolor="#666666"
     pagecolor="#ffffff" />
  <g
     id="g833">
    <title
       id="title830">background</title>
    <rect
       x="-1"
       y="-1"
       width="582"
       height="402"
       id="canvas_background"
       fill="none" />
  </g>
  <g
     id="g854">
    <title
       id="title835">Layer 1</title>
    <polygon
       style="fill:#ffffff"
       points="22.549930572509766,23.812375903129578 21.556270599365234,25.102651476860046 21.556270599365234,29.072128176689148 22.748170852661133,29.072128176689148 22.748170852661133,23.812375903129578 "
       fill="#ffffff"
       id="svg_2" />
    <rect
       style="fill:#ffffff"
       height="5.25977"
       width="1.25195"
       x="23.34778"
       y="23.812362"
       fill="#ffffff"
       id="svg_3" />
    <path
       style="fill:#ffffff"
       d="m27.09141,25.924742l0,3.1474l0.94897,0c-0.00275,-0.03992 -0.01196,-0.078 -0.01196,-0.11865c0,-0.46167 0.18384,-0.87909 0.47845,-1.19043l-1.41546,-1.83832z"
       fill="#ffffff"
       id="svg_4" />
    <circle
       style="fill:#ffffff"
       cx="29.76511"
       cy="28.953492"
       r="1.13708"
       fill="#ffffff"
       id="svg_5" />
    <circle
       style="fill:#ffffff"
       cx="18.24949"
       cy="28.953492"
       r="1.13708"
       fill="#ffffff"
       id="svg_6" />
    <polygon
       style="fill:#ffffff"
       points="22.701759338378906,21.48280704021454 22.701759338378906,23.212785601615906 25.31308937072754,23.212785601615906 25.31308937072754,21.56435000896454 24.05430030822754,20.316781878471375 "
       fill="#ffffff"
       id="svg_7" />
    <polygon
       style="fill:#ffffff"
       points="25.464969635009766,23.812375903129578 25.1993408203125,23.812375903129578 25.1993408203125,29.072128176689148 26.491819381713867,29.072128176689148 26.491819381713867,25.145994067192078 "
       fill="#ffffff"
       id="svg_8" />
    <path
       style="fill:#ffffff"
       d="m20.95664,29.072142l0,-3.19085l-1.4491,1.88171c0.29456,0.31134 0.47839,0.72882 0.47839,1.19049c0,0.04065 -0.00922,0.07874 -0.01196,0.11865l0.98267,0z"
       fill="#ffffff"
       id="svg_9" />
    <path
       style="fill:#ffffff"
       d="m28.18827,29.671752l-8.36218,0c-0.15149,0.3313 -0.40479,0.60242 -0.71881,0.78271l5.08569,4.30713l2.97858,-2.77521c0.00159,-0.00171 0.00305,-0.00269 0.0047,-0.00439l1.67316,-1.5589c-0.28797,-0.18011 -0.51881,-0.44012 -0.66114,-0.75134z"
       fill="#ffffff"
       id="svg_10" />
    <path
       style="fill:#ffffff"
       d="m25.41481,0.404382l-2.4847,0c-0.16009,0 -0.28987,0.12978 -0.28987,0.28987l0,11.81734l3.06445,0l0,-11.81733c0,-0.1601 -0.12978,-0.28988 -0.28988,-0.28988z"
       fill="#ffffff"
       id="svg_11" />
    <path
       style="fill:#ffffff"
       d="m26.36826,1.509162c-0.02277,-0.00531 -0.0415,0.01166 -0.06396,0.01202c0,0 0.00122,0.48285 0,0.58887l0,1.50336c0.73206,0.16803 2.95959,0.73193 3.95801,1.5813c0.12646,0.10742 0.1416,0.29688 0.03418,0.42285c-0.05957,0.06982 -0.14355,0.10547 -0.22852,0.10547c-0.06885,0 -0.13818,-0.02344 -0.19434,-0.07129c-0.83618,-0.71161 -2.7691,-1.22961 -3.56934,-1.42114l0,7.08936c0,0 0.01654,-0.00055 0.0293,-0.00366c5.31464,-1.31732 8.49371,1.93195 9.65814,3.46198c0,0 0.34412,0.47595 0.55328,0.86029c0.0796,-0.93801 0.76466,-11.9092 -10.17675,-14.12941z"
       fill="#ffffff"
       id="svg_12" />
    <path
       style="fill:#ffffff"
       d="m11.841757,15.197632c0,0 0.40924,-0.64813 0.62421,-0.92969c1.16376,-1.40857 4.11157,-4.01355 9.40411,-2.9043c0.03864,0.00806 0.09033,0.02291 0.09033,0.02291l0,-7.15212c-0.86975,0.29938 -3.57019,1.37598 -4.72168,3.54474c-0.0542,0.10156 -0.1582,0.15967 -0.26562,0.15967c-0.04736,0 -0.09521,-0.01172 -0.14014,-0.03516c-0.14648,-0.07812 -0.20215,-0.25928 -0.12451,-0.40576c1.37158,-2.58215 4.59845,-3.69373 5.25195,-3.89655l0,-1.4599l0,-0.60778c-1.28887,0.24518 -10.09588,2.33924 -10.11865,13.66394zm4.53565,-5.96826l-0.47217,0.88574c-0.05371,0.10107 -0.15771,0.15918 -0.26514,0.15918c-0.04736,0 -0.0957,-0.01172 -0.14062,-0.03564c-0.146,-0.07764 -0.20166,-0.25977 -0.12354,-0.40576l0.47217,-0.88574c0.07715,-0.146 0.2583,-0.20264 0.40576,-0.12354c0.146,0.07764 0.20166,0.25976 0.12354,0.40576z"
       fill="#ffffff"
       id="svg_13" />
    <path
       style="fill:#ffffff"
       d="m11.92197,15.197632l0.62421,-0.92969c-0.21497,0.28156 -0.62421,0.92969 -0.62421,0.92969z"
       fill="#303030"
       id="svg_14" />
    <path
       style="fill:#ffffff"
       d="m36.54502,15.638552c-0.20917,-0.38434 -0.55328,-0.86029 -0.55328,-0.86029l0.55328,0.86029z"
       fill="#303030"
       id="svg_15" />
    <path
       style="fill:#ffffff"
       d="m26.3043,1.521182l0,0.58887c0.00122,-0.10602 0,-0.58887 0,-0.58887z"
       fill="#303030"
       id="svg_16" />
    <path
       style="fill:#ffffff"
       d="m39.25095,27.747742c-0.27783,0.10559 -0.7522,0.27667 -1.32831,0.44971c-0.00116,0.00037 -0.00146,0.00177 -0.00262,0.00214c-0.00287,0.00085 -0.0058,0.00055 -0.00867,0.00134c-0.92877,0.27832 -2.11023,0.55627 -3.13,0.55627c-0.16553,0 -0.2998,-0.13428 -0.2998,-0.2998s0.13428,-0.2998 0.2998,-0.2998c0.84692,0 1.83807,-0.2146 2.6759,-0.45129l-2.401,-7.93201c-0.04785,-0.15869 0.0415,-0.32617 0.2002,-0.37402c0.1582,-0.04834 0.32617,0.04199 0.37402,0.2002l2.40161,7.9339c0.59161,-0.18744 1.03497,-0.35754 1.19049,-0.41882l0.5686,-0.2085c-0.02759,-0.17572 -0.04547,-0.34735 -0.09283,-0.53119l-2.49478,-8.49495c-0.07563,-0.25754 -0.18931,-0.50234 -0.33726,-0.72631l-0.90331,-1.36737c-0.23419,-0.41144 -3.24493,-5.435 -9.48486,-3.88892c-0.06152,0.01593 -0.17383,0.06347 -0.17383,0.06347l0,0.84962c0,0.16553 -0.13428,0.2998 -0.2998,0.2998l-3.66406,0c-0.16553,0 -0.2998,-0.13428 -0.2998,-0.2998l0,-0.80702c0,0 -0.13745,-0.03831 -0.21338,-0.05382c-6.45215,-1.34717 -9.08643,2.97974 -9.3233,3.39514l-0.9501,1.39043c-0.1179,0.17254 -0.20877,0.36207 -0.26947,0.56203l-2.94571,9.70415l0.56995,0.18677c0.30579,0.11505 0.86005,0.31244 1.51379,0.49963l2.44879,-8.08826c0.04736,-0.1582 0.21777,-0.24854 0.37402,-0.2002c0.15869,0.04785 0.24805,0.21533 0.2002,0.37402l-2.44312,8.06946c0.71002,0.17596 1.47943,0.31384 2.15601,0.31384c0.16553,0 0.2998,0.13428 0.2998,0.2998s-0.13428,0.2998 -0.2998,0.2998c-1.6037,0 -4.75183,-1.09741 -4.97461,-1.16614c-0.05872,0.36591 -0.08008,0.99774 0.27393,1.67249c0.48633,0.92578 1.49902,1.60107 3.03125,2.0127c0.03833,0.00775 3.88354,0.74152 8.9353,1.07996l-0.77563,-0.65692l-1.21344,-1.02771c-0.06177,0.00665 -0.12195,0.01874 -0.18549,0.01874c-0.95801,0 -1.73682,-0.77881 -1.73682,-1.73682c0,-0.40765 0.14691,-0.77789 0.38275,-1.07446l-2.03119,-3.16821c-0.08936,-0.13965 -0.04883,-0.3252 0.09033,-0.41455c0.13965,-0.09082 0.32471,-0.04883 0.41455,0.09033l1.98022,3.08875c0.26331,-0.16089 0.56946,-0.25867 0.90015,-0.25867c0.2796,0 0.54016,0.07269 0.77435,0.19055l3.07819,-3.99725l0,-2.06497c0.03632,-0.07926 0.06768,-0.14771 0.104,-0.22696l1.6665,-1.43652c0.11864,-0.10227 0.29598,-0.0961 0.40723,0.01416l1.54443,1.53076c0.03064,0.07351 0.05774,0.13853 0.08838,0.21203l0,1.97156l3.07776,3.99719c0.23425,-0.11792 0.495,-0.19055 0.77478,-0.19055c0.33051,0 0.63647,0.09778 0.89972,0.25867l1.98065,-3.08875c0.08887,-0.13818 0.2749,-0.17969 0.41455,-0.09033c0.13916,0.08936 0.17969,0.2749 0.09033,0.41455l-2.03162,3.16821c0.23578,0.29657 0.38269,0.66681 0.38269,1.07446c0,0.95801 -0.77881,1.73682 -1.73633,1.73682c-0.09943,0 -0.19543,-0.01324 -0.29034,-0.02936l-1.27307,1.1861l-0.68298,0.63629c3.39636,-0.10431 6.41107,-0.50995 8.92511,-1.20563c0.0791,-0.0127 1.94482,-0.3335 2.89404,-1.7876c0.36523,-0.55927 0.52374,-1.21252 0.51147,-1.93823l-0.59851,0.19587zm-16.19421,-10.49981c-0.0578,0.51929 -0.25836,0.99438 -0.55963,1.39056c-0.00201,0.00354 0.00031,0.00775 -0.00189,0.01129c-0.07568,0.12061 -1.86768,2.90869 -5.69775,2.90869c-0.06201,0 -0.12451,-0.00098 -0.1875,-0.00244c-0.16602,-0.00391 -0.29688,-0.14111 -0.29297,-0.30664c0.00391,-0.16357 0.13721,-0.29297 0.2998,-0.29297c0.00244,0 0.00488,0 0.00684,0c1.76709,0.04962 3.0639,-0.54431 3.94153,-1.17987c-0.65881,0.15582 -1.34076,0.21259 -1.9801,0.21259c-1.56445,0 -2.87207,-0.33398 -2.95508,-0.35596c-0.78955,-0.38721 -1.22363,-0.88574 -1.34912,-1.50342c-0.21143,-1.04102 0.52637,-2.09863 0.98535,-2.63623c0.14404,-0.16895 0.30371,-0.31738 0.47559,-0.44238c1.93408,-1.4126 4.00049,-1.15088 5.39404,-0.68311c1.23925,0.41651 2.04735,1.62745 1.92089,2.87989zm11.17627,0.88183c-0.12549,0.61768 -0.55957,1.11621 -1.29053,1.48193c-0.12158,0.03564 -1.44922,0.37646 -3.02295,0.37646c-0.61218,0 -1.26105,-0.05396 -1.8913,-0.19482c0.8504,0.6037 2.07849,1.16504 3.72528,1.16504c0.05713,0 0.11426,-0.00049 0.17285,-0.00195c0.00195,0 0.00439,0 0.00684,0c0.1626,0 0.2959,0.12939 0.2998,0.29297c0.00391,0.16553 -0.12695,0.30273 -0.29297,0.30664c-0.06299,0.00146 -0.12549,0.00244 -0.1875,0.00244c-3.29132,0 -5.07343,-2.05377 -5.55927,-2.71008c-0.39893,-0.42694 -0.66614,-0.96704 -0.73175,-1.55554c-0.13086,-1.29736 0.67725,-2.50879 1.91602,-2.9248c1.39355,-0.46924 3.46045,-0.72998 5.39453,0.68359c0.17041,0.12402 0.33057,0.27246 0.47559,0.44141c0.45899,0.53808 1.19679,1.5957 0.98536,2.63671z"
       fill="#ffffff"
       id="svg_17" />
    <g
       style="font-weight:bold;font-size:8px;font-family:'League Gothic', sans-serif;text-anchor:start;fill:#ffffff;stroke-width:0"
       id="svg_18"
       aria-label="NO PHOTO">
      <path
         id="path866"
         style="font-style:normal;font-variant:normal;font-weight:bold;font-stretch:normal;font-size:8px;font-family:'Arial Black';-inkscape-font-specification:'Arial Black, Bold';fill:#ffffff"
         d="M 0.83058582,40.837578 H 2.4829296 l 2.15625,3.167969 V 40.837578 H 6.3071483 V 46.56414 H 4.6391796 L 2.4946483,43.419609 V 46.56414 H 0.83058582 Z" />
      <path
         id="path868"
         style="font-style:normal;font-variant:normal;font-weight:bold;font-stretch:normal;font-size:8px;font-family:'Arial Black';-inkscape-font-specification:'Arial Black, Bold';fill:#ffffff"
         d="m 7.2680858,43.704765 q 0,-1.402343 0.78125,-2.183593 0.78125,-0.78125 2.1757812,-0.78125 1.429688,0 2.203125,0.769531 0.773438,0.765625 0.773438,2.148437 0,1.003907 -0.339844,1.648438 -0.335938,0.640625 -0.976563,1 -0.636718,0.355469 -1.589843,0.355469 -0.9687504,0 -1.6054692,-0.308594 Q 8.0571483,46.044609 7.6626171,45.37664 7.2680858,44.708672 7.2680858,43.704765 Z m 1.7695313,0.0078 q 0,0.867187 0.3203125,1.246094 0.3242187,0.378906 0.8789064,0.378906 0.570312,0 0.882812,-0.371094 0.3125,-0.371094 0.3125,-1.332031 0,-0.808594 -0.328125,-1.179688 -0.324218,-0.375 -0.882812,-0.375 -0.5351564,0 -0.8593752,0.378907 -0.3242187,0.378906 -0.3242187,1.253906 z" />
      <path
         id="path870"
         style="font-style:normal;font-variant:normal;font-weight:bold;font-stretch:normal;font-size:8px;font-family:'Arial Black';-inkscape-font-specification:'Arial Black, Bold';fill:#ffffff"
         d="m 16.82668,40.837578 h 2.941406 q 0.960937,0 1.4375,0.457031 0.480469,0.457031 0.480469,1.300781 0,0.867188 -0.523438,1.355469 -0.519531,0.488281 -1.589844,0.488281 h -0.96875 v 2.125 H 16.82668 Z m 1.777343,2.441406 h 0.433594 q 0.511719,0 0.71875,-0.175781 0.207031,-0.179688 0.207031,-0.457031 0,-0.269532 -0.179687,-0.457032 -0.179688,-0.1875 -0.675781,-0.1875 h -0.503907 z" />
      <path
         id="path872"
         style="font-style:normal;font-variant:normal;font-weight:bold;font-stretch:normal;font-size:8px;font-family:'Arial Black';-inkscape-font-specification:'Arial Black, Bold';fill:#ffffff"
         d="m 22.623555,40.837578 h 1.769531 v 2.003906 h 1.933594 v -2.003906 h 1.777343 V 46.56414 H 26.32668 v -2.316406 h -1.933594 v 2.316406 h -1.769531 z" />
      <path
         id="path874"
         style="font-style:normal;font-variant:normal;font-weight:bold;font-stretch:normal;font-size:8px;font-family:'Arial Black';-inkscape-font-specification:'Arial Black, Bold';fill:#ffffff"
         d="m 29.064961,43.704765 q 0,-1.402343 0.78125,-2.183593 0.78125,-0.78125 2.175781,-0.78125 1.429688,0 2.203125,0.769531 0.773438,0.765625 0.773438,2.148437 0,1.003907 -0.339844,1.648438 -0.335938,0.640625 -0.976563,1 -0.636718,0.355469 -1.589843,0.355469 -0.96875,0 -1.605469,-0.308594 -0.632813,-0.308594 -1.027344,-0.976563 -0.394531,-0.667968 -0.394531,-1.671875 z m 1.769531,0.0078 q 0,0.867187 0.320313,1.246094 0.324218,0.378906 0.878906,0.378906 0.570312,0 0.882812,-0.371094 0.3125,-0.371094 0.3125,-1.332031 0,-0.808594 -0.328125,-1.179688 -0.324218,-0.375 -0.882812,-0.375 -0.535156,0 -0.859375,0.378907 -0.324219,0.378906 -0.324219,1.253906 z" />
      <path
         id="path876"
         style="font-style:normal;font-variant:normal;font-weight:bold;font-stretch:normal;font-size:8px;font-family:'Arial Black';-inkscape-font-specification:'Arial Black, Bold';fill:#ffffff"
         d="m 35.557148,40.837578 h 5.378907 v 1.414062 h -1.804688 v 4.3125 h -1.769531 v -4.3125 h -1.804688 z" />
      <path
         id="path878"
         style="font-style:normal;font-variant:normal;font-weight:bold;font-stretch:normal;font-size:8px;font-family:'Arial Black';-inkscape-font-specification:'Arial Black, Bold';fill:#ffffff"
         d="m 41.518086,43.704765 q 0,-1.402343 0.78125,-2.183593 0.78125,-0.78125 2.175781,-0.78125 1.429688,0 2.203125,0.769531 0.773438,0.765625 0.773438,2.148437 0,1.003907 -0.339844,1.648438 -0.335938,0.640625 -0.976563,1 -0.636718,0.355469 -1.589843,0.355469 -0.96875,0 -1.605469,-0.308594 -0.632813,-0.308594 -1.027344,-0.976563 -0.394531,-0.667968 -0.394531,-1.671875 z m 1.769531,0.0078 q 0,0.867187 0.320313,1.246094 0.324218,0.378906 0.878906,0.378906 0.570312,0 0.882812,-0.371094 0.3125,-0.371094 0.3125,-1.332031 0,-0.808594 -0.328125,-1.179688 -0.324218,-0.375 -0.882812,-0.375 -0.535156,0 -0.859375,0.378907 -0.324219,0.378906 -0.324219,1.253906 z" />
    </g>
  </g>
</svg>
