<?xml version="1.0" encoding="UTF-8"?>
<svg width="2352.9" height="1049.4" version="1.1" viewBox="0 0 181.42 80.912" xmlns="http://www.w3.org/2000/svg" xmlns:cc="http://creativecommons.org/ns#" xmlns:dc="http://purl.org/dc/elements/1.1/" xmlns:rdf="http://www.w3.org/1999/02/22-rdf-syntax-ns#"><metadata><rdf:RDF><cc:Work rdf:about=""><dc:format>image/svg+xml</dc:format><dc:type rdf:resource="http://purl.org/dc/dcmitype/StillImage"/><dc:title/></cc:Work></rdf:RDF></metadata><g transform="translate(-5.669,-55.922)" clip-rule="evenodd" fill="#fff" fill-rule="evenodd"><path d="m0 0h192.76v192.76h-192.76z" fill-opacity="0"/><path d="m5.669 81.215v12.65h37.003c4.301 0 9.796-3.977 9.796-10.556 0-2.646 1.012-4.372-2.098-7.872l-4.733-5.608c-2.712-2.53 0.324-2.53 2.602-2.53h15.623v26.566h12.39v-26.566h16.699v-11.377h-54.074c-6.579 0-9.796 6.317-9.615 9.606 0.182 3.289 0.787 7.427 6.254 12.398 4.987 4.533-2.469 3.289-3.218 3.289zm114.68-25.293h-19.988l-11.205 37.944h12.47l2.023-5.313h13.156l1.953 5.313h12.215zm-13.916 23.522 4.301-13.916 4.049 13.916zm64.011 1.771c-4.807 0-4.807-1.771-4.807-1.771 4.119 0 7.771-6.001 7.771-12.145s-6-11.377-10.809-11.377h-26.891v37.944h13.664v-12.65s5.818 6.831 8.854 9.614c3.037 2.783 3.289 3.036 7.41 3.036h21.449v-12.65c2e-3 -1e-3 -11.834-1e-3 -16.641-1e-3zm-12.398-8.855h-8.672v-6.832h8.672c3.976 0 4.664 6.832 0 6.832zm-152.38 26.312h13.979l3.542 12.652 3.289-12.652h14.675l3.795 12.652 3.796-12.652h12.144l-11.133 37.953h-11.132l-4.878-17.965-5.496 17.965h-11.385zm83.909 0.219h-19.988l-11.204 37.943h12.469l2.024-5.312h13.157l1.953 5.312h12.216zm-13.915 23.521 4.301-13.916 4.048 13.916zm95.032-12.353c-2.275 0-4.756 0.266-2.043 2.795l4.734 5.609c3.109 3.5 3.059 4.959 3.059 7.607 0 6.578-6.508 10.555-10.809 10.555l-29.896 0.201c-4.119 0-4.371-0.252-7.408-3.035-3.035-2.783-8.855-9.615-8.855-9.615v12.65h-13.662v-37.943h26.891c4.807 0 10.809 5.234 10.809 11.377 0 6.145-3.652 12.145-7.773 12.145 0 0 1.812 1.822 4.848 1.822 3.037 0 14.727 0.012 14.727 0.012 0.748 0 8.203 1.244 3.217-3.289-5.467-4.971-6.072-9.107-6.254-12.396s2.662-9.881 9.238-9.881h25.57v11.387h-16.393zm-42.545 5.261h-8.674v-6.832h8.674c3.977 0 4.664 6.832 0 6.832z"/></g></svg>
